<svg width="25" height="25" viewBox="0 0 25 25" fill="none" xmlns="http://www.w3.org/2000/svg">
<path d="M22.5 12.25C22.5 6.58908 17.9109 2 12.25 2C6.58908 2 2 6.58908 2 12.25C2 17.9109 6.58908 22.5 12.25 22.5C17.9109 22.5 22.5 17.9109 22.5 12.25ZM15.293 9.04297C15.6835 8.65244 16.3165 8.65244 16.707 9.04297C17.0976 9.43349 17.0976 10.0665 16.707 10.457L11.707 15.457C11.3165 15.8476 10.6835 15.8476 10.293 15.457L7.79297 12.957L7.72461 12.8809C7.40426 12.4881 7.42685 11.9091 7.79297 11.543C8.15908 11.1769 8.73809 11.1543 9.13086 11.4746L9.20703 11.543L11 13.3359L15.293 9.04297ZM24.5 12.25C24.5 19.0155 19.0155 24.5 12.25 24.5C5.48451 24.5 0 19.0155 0 12.25C0 5.48451 5.48451 0 12.25 0C19.0155 0 24.5 5.48451 24.5 12.25Z" fill="#1C1B1B"/>
</svg>
