<svg width="30" height="30" viewBox="0 0 30 30" fill="none" xmlns="http://www.w3.org/2000/svg">
<path d="M10.5848 10.4938L10.5823 10.495L10.5786 10.4975L10.5848 10.4938ZM23.0273 10.26C22.9404 10.1761 22.8439 10.1027 22.7398 10.0413C22.5925 9.95454 22.429 9.89895 22.2594 9.87793C22.0897 9.85691 21.9176 9.8709 21.7536 9.91906C21.5895 9.96721 21.4371 10.0485 21.3058 10.1579C21.1744 10.2673 21.0669 10.4024 20.9898 10.555C20.5593 11.4037 19.9655 12.1589 19.2423 12.7775C19.3532 12.1544 19.4093 11.5229 19.4098 10.89C19.4122 8.96518 18.9045 7.0741 17.9384 5.4093C16.9723 3.74449 15.5822 2.36543 13.9098 1.41251C13.7255 1.3078 13.5176 1.25167 13.3057 1.2494C13.0937 1.24713 12.8847 1.2988 12.6982 1.39955C12.5117 1.50029 12.3539 1.64681 12.2396 1.82532C12.1253 2.00383 12.0583 2.20847 12.0448 2.42001C11.9749 3.60514 11.665 4.76372 11.1341 5.82557C10.6032 6.88743 9.8622 7.83045 8.95609 8.59751L8.66859 8.83126C7.72061 9.46907 6.88153 10.2554 6.18359 11.16C5.09893 12.5264 4.34758 14.1267 3.98911 15.8341C3.63064 17.5414 3.67493 19.3088 4.11846 20.996C4.56198 22.6833 5.39255 24.244 6.54427 25.5543C7.696 26.8647 9.13721 27.8886 10.7536 28.545C10.9434 28.6223 11.1492 28.6517 11.353 28.6307C11.5568 28.6096 11.7524 28.5389 11.9224 28.4245C12.0924 28.3102 12.2317 28.1558 12.328 27.975C12.4244 27.7941 12.4748 27.5924 12.4748 27.3875C12.4738 27.2551 12.4527 27.1236 12.4123 26.9975C12.1327 25.9463 12.0521 24.8521 12.1748 23.7713C13.3579 26.002 15.2568 27.7701 17.5661 28.7913C17.8478 28.9172 18.1663 28.9341 18.4598 28.8388C20.2842 28.2498 21.9276 27.2042 23.2341 25.8013C24.5406 24.3983 25.4666 22.6847 25.9243 20.823C26.3819 18.9614 26.356 17.0137 25.849 15.1649C25.342 13.3161 24.3707 11.6277 23.0273 10.26ZM18.1461 26.2988C17.0565 25.7466 16.0952 24.9714 15.3249 24.0234C14.5545 23.0753 13.9923 21.9758 13.6748 20.7963C13.5778 20.399 13.5027 19.9968 13.4498 19.5913C13.4143 19.333 13.2989 19.0924 13.1198 18.903C12.9407 18.7136 12.7069 18.585 12.4511 18.535C12.3724 18.5197 12.2925 18.5122 12.2123 18.5125C11.9927 18.5123 11.7769 18.57 11.5866 18.6797C11.3964 18.7894 11.2384 18.9473 11.1286 19.1375C10.0916 20.9266 9.57031 22.9678 9.62234 25.035C8.71004 24.3259 7.94756 23.4427 7.37911 22.4367C6.81066 21.4308 6.44754 20.3219 6.31081 19.1746C6.17407 18.0272 6.26644 16.8641 6.58255 15.7527C6.89866 14.6413 7.43224 13.6037 8.15234 12.7C8.69911 11.9898 9.35871 11.3741 10.1048 10.8775C10.1375 10.8566 10.1688 10.8336 10.1986 10.8088C10.1986 10.8088 10.5686 10.5025 10.5811 10.4963C12.3626 8.99007 13.6298 6.9656 14.2061 4.70501C15.5679 5.96422 16.4758 7.63784 16.7888 9.46597C17.1019 11.2941 16.8026 13.1744 15.9373 14.815C15.8228 15.034 15.7758 15.282 15.8022 15.5277C15.8286 15.7734 15.9272 16.0057 16.0855 16.1954C16.2439 16.3851 16.455 16.5236 16.692 16.5934C16.929 16.6631 17.1815 16.6611 17.4173 16.5875C19.332 15.987 21.0168 14.8144 22.2448 13.2275C22.9832 14.3178 23.466 15.5607 23.6572 16.8635C23.8484 18.1664 23.743 19.4955 23.349 20.752C22.9551 22.0085 22.2826 23.1598 21.3817 24.1202C20.4808 25.0806 19.3748 25.8253 18.1461 26.2988Z" fill="#1C1B1B"/>
</svg>
