<svg width="30" height="30" viewBox="0 0 30 30" fill="none" xmlns="http://www.w3.org/2000/svg">
<path d="M5 26.25V19.6089M5 19.6089C12.2727 13.9221 17.7273 25.2953 25 19.6086V5.39184C17.7273 11.0786 12.2727 -0.295129 5 5.39158V19.6089Z" stroke="#1C1B1B" stroke-width="2" stroke-linecap="round" stroke-linejoin="round"/>
<path d="M14.2002 16V13.7998H12C11.5582 13.7998 11.2002 13.4418 11.2002 13C11.2002 12.5582 11.5582 12.2002 12 12.2002H14.2002V10C14.2002 9.55817 14.5582 9.2002 15 9.2002C15.4418 9.2002 15.7998 9.55817 15.7998 10V12.2002H18L18.082 12.2041C18.4853 12.2452 18.7998 12.5859 18.7998 13C18.7998 13.4141 18.4853 13.7548 18.082 13.7959L18 13.7998H15.7998V16C15.7998 16.4418 15.4418 16.7998 15 16.7998C14.5582 16.7998 14.2002 16.4418 14.2002 16Z" fill="#1C1B1B"/>
</svg>
